name C:\Users\Nicos\Desktop\Gil_twoSteps\Study2\ExperimentalData\IK_Splined\twoSteps_IK_BSplines_40_meshInts_study2_p02_s_01_lowIK_modROI.mot
datacolumns 38
datarows 10
range 0.32800000 0.35149006
endheader
                time	         pelvis_tilt	         pelvis_list	     pelvis_rotation	           pelvis_tx	           pelvis_ty	           pelvis_tz	       hip_flexion_r	     hip_adduction_r	      hip_rotation_r	        knee_angle_r	       ankle_angle_r	    subtalar_angle_r	         mtp_angle_r	       hip_flexion_l	     hip_adduction_l	      hip_rotation_l	        knee_angle_l	       ankle_angle_l	    subtalar_angle_l	         mtp_angle_l	    lumbar_extension	      lumbar_bending	     lumbar_rotation	          arm_flex_r	           arm_add_r	           arm_rot_r	        elbow_flex_r	           pro_sup_r	        wrist_flex_r	         wrist_dev_r	          arm_flex_l	           arm_add_l	           arm_rot_l	        elbow_flex_l	           pro_sup_l	        wrist_flex_l	         wrist_dev_l	
          0.32800000	        -23.77642217	         -6.33841996	          9.43024036	         -1.36066122	          0.83318393	          0.29588054	         79.42042558	         -5.96952727	         -2.98022461	        -86.12456654	          4.90943385	        -23.73854816	          0.69529571	         -5.48223673	         -4.92631131	          9.97901848	        -37.48546744	        -33.57924783	          7.82655756	          7.66146478	        -21.54542245	         17.06873034	         -0.54536334	        -65.70031034	          7.96999006	        -31.42840743	         64.95905480	         72.07293089	         -3.63760479	          8.13116350	         30.84780821	         -6.70990363	         22.84355467	        139.87361838	         49.25532328	         -6.16315327	          5.35004229	
          0.32969006	        -23.50066161	         -6.07327437	          9.28448963	         -1.35220875	          0.83435971	          0.29593844	         78.11990045	         -5.96884708	         -2.88130253	        -85.44269054	          4.73371901	        -23.48610468	          1.03661803	         -5.12804846	         -4.60928986	          9.27288342	        -38.75916519	        -33.52636217	          8.30741007	          8.13748045	        -22.04116412	         16.86956713	         -0.82363113	        -64.64702535	          7.32958927	        -31.01537310	         65.23592589	         72.07772203	         -3.59783656	          8.19626536	         28.97081770	         -7.02588346	         21.92851132	        138.91431849	         49.23174548	         -6.34498153	          5.48675525	
          0.33502994	        -22.62937079	         -5.23552254	          8.82397683	         -1.32550241	          0.83807469	          0.29612137	         74.01077192	         -5.96669793	         -2.56874912	        -83.28824072	          4.17853185	        -22.68848634	          2.11505721	         -4.00895809	         -3.60763150	          7.04178487	        -42.78353016	        -33.35926506	          9.82670770	          9.64149566	        -23.60750541	         16.24029272	         -1.70284374	        -61.31907475	          5.30618421	        -29.71035322	         66.11072550	         72.09286010	         -3.47218520	          8.40196069	         23.04029388	         -8.02425073	         19.03734786	        135.88332240	         49.15724928	         -6.91948461	          5.91871240	
          0.33890000	        -22.08618159	         -4.70461181	          8.52116794	         -1.30620991	          0.84046433	          0.29648501	         71.03901003	         -5.92617992	         -2.43174449	        -81.70394236	          4.59471861	        -21.97841695	          2.69013624	         -3.03389472	         -2.98639439	          5.40701575	        -45.79695060	        -33.14667443	          9.59791205	         10.06038551	        -24.57304841	         15.77664389	         -2.22911682	        -58.92393119	          3.82095529	        -28.72269022	         66.82175884	         72.09388022	         -3.37088371	          8.53980026	         19.06777088	         -8.62440338	         16.82837496	        133.18633582	         48.93347253	         -7.32152243	          6.18083143	
          0.33890000	        -22.08618159	         -4.70461181	          8.52116794	         -1.30620991	          0.84046433	          0.29648501	         71.03901003	         -5.92617992	         -2.43174449	        -81.70394236	          4.59471861	        -21.97841695	          2.69013624	         -3.03389472	         -2.98639439	          5.40701575	        -45.79695060	        -33.14667443	          9.59791205	         10.06038551	        -24.57304841	         15.77664389	         -2.22911682	        -58.92393119	          3.82095529	        -28.72269022	         66.82175884	         72.09388022	         -3.37088371	          8.53980026	         19.06777088	         -8.62440338	         16.82837496	        133.18633582	         48.93347253	         -7.32152243	          6.18083143	
          0.34059006	        -21.89532512	         -4.51280081	          8.40518114	         -1.29781783	          0.84134891	          0.29676514	         69.74455202	         -5.88802678	         -2.41892154	        -81.00006770	          5.20630761	        -21.59901355	          2.83282891	         -2.52195981	         -2.77008485	          4.68376807	        -47.16373583	        -33.00579385	          8.79964049	          9.89088737	        -24.90561256	         15.57018487	         -2.40068817	        -57.88677745	          3.16249491	        -28.26939740	         67.17271591	         72.08910017	         -3.32126999	          8.59409409	         17.50394311	         -8.82168598	         15.80405244	        131.74584891	         48.74659107	         -7.48956748	          6.26854953	
          0.34592994	        -21.29229658	         -3.90675636	          8.03871019	         -1.27130228	          0.84414381	          0.29765025	         65.65459308	         -5.76747843	         -2.37840628	        -78.77611109	          7.13867917	        -20.40025370	          3.28367951	         -0.90445449	         -2.08663497	          2.39860066	        -51.48221920	        -32.56066875	          6.27742823	          9.35534241	        -25.95637954	         14.91785867	         -2.94278359	        -54.60979501	          1.08202888	        -26.83717715	         68.28159698	         72.07399716	         -3.16451087	          8.76564042	         12.56288572	         -9.44501846	         12.56761140	        127.19449827	         48.15612194	         -8.02052124	          6.54570295	
          0.34980000	        -20.99611537	         -3.57092330	          7.74460287	         -1.25229110	          0.84574376	          0.29866119	         62.80936390	         -5.58565225	         -2.38387951	        -77.19616294	          9.29589316	        -19.46405580	          3.39340208	          0.52731003	         -1.75894400	          0.77264180	        -54.69628080	        -32.07795333	          3.17138962	          8.32207498	        -26.47753765	         14.41854318	         -3.19775825	        -52.13317191	         -0.35256991	        -25.69907999	         69.12822259	         72.06267840	         -3.06119346	          8.87548725	          9.45691593	         -9.75295935	         10.18524603	        123.18067202	         47.66671788	         -8.38443542	          6.72427784	
          0.34980000	        -20.99611537	         -3.57092330	          7.74460287	         -1.25229110	          0.84574376	          0.29866119	         62.80936390	         -5.58565225	         -2.38387951	        -77.19616294	          9.29589316	        -19.46405580	          3.39340208	          0.52731003	         -1.75894400	          0.77264180	        -54.69628080	        -32.07795333	          3.17138962	          8.32207498	        -26.47753765	         14.41854318	         -3.19775825	        -52.13317191	         -0.35256991	        -25.69907999	         69.12822259	         72.06267840	         -3.06119346	          8.87548725	          9.45691593	         -9.75295935	         10.18524603	        123.18067202	         47.66671788	         -8.38443542	          6.72427784	
          0.35149006	        -20.88615388	         -3.43849086	          7.61224339	         -1.24401722	          0.84638390	          0.29915350	         61.58321640	         -5.49325195	         -2.39106283	        -76.51058117	         10.34206969	        -19.04594356	          3.41145692	          1.18826530	         -1.63890618	          0.06674029	        -56.11145745	        -31.84512116	          1.63912934	          7.78208225	        -26.67205383	         14.19683938	         -3.29013131	        -51.03764329	         -0.96898744	        -25.18829901	         69.50385680	         72.05768418	         -3.01749089	          8.92146505	          8.16589715	         -9.86764965	          9.13980606	        121.32941879	         47.44453786	         -8.54048248	          6.79919465	
